# xmcd
#
# Track frame offsets:
#  150
#  20135
#  36214
#  55068
#  56308
#  88897
#  127503
#  146025
#  170349
#  195720
#  221108
#  237180
#
# Disc length: 3400 seconds
#
# Revision: 0
# Processed by: cddbd v1.4PL0 Copyright (c) Steve Scherf et al.
# Submitted via: AltoMP3_Maker 3.0
#
DISCID=a60d460c
DTITLE=Cadaillac Dave and His Chicago Redhots - Checkin On My Baby
DYEAR=1900
DGENRE=
TTITLE0=Snatch It Back And Hold It
TTITLE1=Stop Breakin Down
TTITLE2=Call My Job
TTITLE3=Intro
TTITLE4=Born Under A Bad Sign
TTITLE5=Been So Lonely
TTITLE6=Checkin On My Baby
TTITLE7=Walking The Dog
TTITLE8=Master Charge
TTITLE9=Early In The Morning
TTITLE10=Ain't Got You 
TTITLE11=Hey Bartender
EXTD=
EXTT0=
EXTT1=
EXTT2=
EXTT3=
EXTT4=
EXTT5=
EXTT6=
EXTT7=
EXTT8=
EXTT9=
EXTT10=
EXTT11=
PLAYORDER=
